<svg width="660" height="194" viewBox="0 0 660 194" fill="none" xmlns="http://www.w3.org/2000/svg">
<path d="M16.321 57.4972H18.6648C24.2045 57.4972 25.8381 54.5142 27.3295 51.1051L39.9006 20.6364H35.2131L26.0511 43.2216L16.0369 20.6364H11.2784L23.8494 48.4773L23.2812 49.8267C22.5 51.6023 21.2216 53.3778 18.5938 53.3778H16.321V57.4972ZM62.4947 29.7273H58.3043V43.5589C56.2802 44.1449 54.2028 44.5 51.6992 44.5C48.2901 44.5 45.6623 42.5824 45.6623 38.392V29.6562H41.4719V38.392C41.4719 45.0682 45.5202 48.4062 51.6992 48.4062C54.2738 48.4062 56.3335 48.0689 58.3043 47.483V57H62.4947V29.7273ZM81.6175 57.5682C87.1573 57.5682 91.2056 54.7983 92.484 50.679L88.4357 49.5426C87.3704 52.3835 84.9023 53.804 81.6175 53.804C76.6992 53.804 73.3079 50.6257 73.1126 44.7841H92.9102V43.0085C92.9102 32.8523 86.8732 29.3722 81.1914 29.3722C73.805 29.3722 68.9045 35.196 68.9045 43.5767C68.9045 51.9574 73.734 57.5682 81.6175 57.5682ZM73.1126 41.1619C73.3967 36.9183 76.3974 33.1364 81.1914 33.1364C85.7369 33.1364 88.6488 36.5455 88.6488 41.1619H73.1126ZM119.526 19.5C118.194 20.6186 116.206 20.6186 113.418 20.6009C112.512 20.6009 111.518 20.6009 110.435 20.6364C102.125 20.8494 98.006 27.1705 98.006 39.3153V42.2273C98.006 52.3125 102.907 57.5682 110.222 57.5682C117.52 57.5682 122.367 52.277 122.367 43.7188C122.367 35.125 117.449 30.5795 111.074 30.5795C107.328 30.5795 103.83 32.142 101.983 35.5511H101.628C102.196 28.5199 104.824 24.7557 110.506 24.5426C115.549 24.3295 119.171 24.4716 121.657 22.0568L119.526 19.5ZM110.222 53.804C105.25 53.804 102.196 49.8267 102.196 43.7188C102.285 37.7528 105.286 34.3438 110.151 34.3438C115.14 34.3438 118.176 37.7528 118.176 43.7188C118.176 49.8622 115.158 53.804 110.222 53.804ZM132.967 29.7273H128.777V57H132.967V45.3523H146.035V57H150.225V29.7273H146.035V41.446H132.967V29.7273ZM162.069 39.5994V29.7273H157.878V57H169.313C175.705 57 179.185 53.0938 179.185 48.1932C179.185 43.2216 175.705 39.5994 169.313 39.5994H162.069ZM183.517 57H187.708V29.7273H183.517V57ZM162.069 43.5057H169.313C172.633 43.5057 174.995 45.5298 174.995 48.4062C174.995 51.1584 172.633 53.0938 169.313 53.0938H162.069V43.5057ZM199.569 50.821V29.7273H195.378V57H200.279L213.347 35.9062V57H217.537V29.7273H212.708L199.569 50.821ZM209.938 20.6364C209.938 22.483 208.944 24.1165 206.458 24.1165C203.972 24.1165 203.049 22.483 203.049 20.6364H199.142C199.142 24.4716 201.983 27.1705 206.458 27.1705C211.003 27.1705 213.844 24.4716 213.844 20.6364H209.938ZM239.275 57H243.465V33.6335H256.533V57H260.724V29.7273H239.275V57ZM268.376 67.2273H272.567V52.8097H272.922C273.845 54.3011 275.621 57.5682 280.876 57.5682C287.694 57.5682 292.453 52.0994 292.453 43.4347C292.453 34.8409 287.694 29.3722 280.805 29.3722C275.479 29.3722 273.845 32.6392 272.922 34.0597H272.425V29.7273H268.376V67.2273ZM272.496 43.3636C272.496 37.2557 275.194 33.1364 280.308 33.1364C285.635 33.1364 288.263 37.6108 288.263 43.3636C288.263 49.1875 285.564 53.804 280.308 53.804C275.265 53.804 272.496 49.5426 272.496 43.3636ZM309.925 57.5682C317.311 57.5682 322.282 51.9574 322.282 43.5057C322.282 34.983 317.311 29.3722 309.925 29.3722C302.538 29.3722 297.567 34.983 297.567 43.5057C297.567 51.9574 302.538 57.5682 309.925 57.5682ZM309.925 53.804C304.314 53.804 301.757 48.9744 301.757 43.5057C301.757 38.0369 304.314 33.1364 309.925 33.1364C315.535 33.1364 318.092 38.0369 318.092 43.5057C318.092 48.9744 315.535 53.804 309.925 53.804ZM340.114 57.5682C345.653 57.5682 349.702 54.7983 350.98 50.679L346.932 49.5426C345.866 52.3835 343.398 53.804 340.114 53.804C335.195 53.804 331.804 50.6257 331.609 44.7841H351.406V43.0085C351.406 32.8523 345.369 29.3722 339.688 29.3722C332.301 29.3722 327.401 35.196 327.401 43.5767C327.401 51.9574 332.23 57.5682 340.114 57.5682ZM331.609 41.1619C331.893 36.9183 334.893 33.1364 339.688 33.1364C344.233 33.1364 347.145 36.5455 347.145 41.1619H331.609ZM357.781 57H361.971V45.4943H365.735L374.684 57H380.082L368.931 42.8665L379.94 29.7273H374.542L364.741 41.5881H361.971V29.7273H357.781V57ZM383.074 33.6335H392.093V57H396.284V33.6335H405.233V29.7273H383.074V33.6335ZM436.487 57.5682C442.524 57.5682 446.501 53.875 447.211 49.0455H443.021C442.24 52.0284 439.754 53.804 436.487 53.804C431.515 53.804 428.319 49.6847 428.319 43.3636C428.319 37.1847 431.586 33.1364 436.487 33.1364C440.18 33.1364 442.382 35.4091 443.021 37.8949H447.211C446.501 32.7812 442.169 29.3722 436.416 29.3722C429.03 29.3722 424.129 35.196 424.129 43.5057C424.129 51.6733 428.817 57.5682 436.487 57.5682ZM451.189 33.6335H460.209V57H464.399V33.6335H473.348V29.7273H451.189V33.6335ZM482.159 67.1562C485.941 67.1562 488.622 65.1499 490.185 60.9773L501.797 29.7983L497.216 29.7273L489.688 51.4602H489.403L481.875 29.7273H477.33L487.415 57.142L486.634 59.2727C485.142 63.3565 483.224 63.7472 480.17 62.9659L479.105 66.6591C479.531 66.8722 480.739 67.1562 482.159 67.1562ZM502.134 64.8125H506.325V57H526.495V64.8125H530.685V53.0938H526.495V29.7273H509.165L508.242 40.5227C507.585 48.1577 506.609 50.7855 504.407 53.0938H502.134V64.8125ZM509.165 53.0938C511.083 50.5724 511.776 46.2223 512.362 40.5227L513.072 33.6335H522.305V53.0938H509.165ZM547.682 57.5682C553.222 57.5682 557.27 54.7983 558.548 50.679L554.5 49.5426C553.435 52.3835 550.967 53.804 547.682 53.804C542.764 53.804 539.372 50.6257 539.177 44.7841H558.975V43.0085C558.975 32.8523 552.938 29.3722 547.256 29.3722C539.869 29.3722 534.969 35.196 534.969 43.5767C534.969 51.9574 539.798 57.5682 547.682 57.5682ZM539.177 41.1619C539.461 36.9183 542.462 33.1364 547.256 33.1364C551.801 33.1364 554.713 36.5455 554.713 41.1619H539.177ZM569.539 29.7273H565.349V57H569.539V45.3523H582.607V57H586.798V29.7273H582.607V41.446H569.539V29.7273ZM590.74 33.6335H599.759V57H603.95V33.6335H612.899V29.7273H590.74V33.6335ZM625.621 57.6392C630.379 57.6392 632.865 55.0824 633.717 53.3068H633.93V57H638.121V39.0312C638.121 30.3665 631.515 29.3722 628.035 29.3722C623.916 29.3722 619.229 30.7926 617.098 35.7642L621.075 37.1847C621.998 35.196 624.182 33.0653 628.177 33.0653C632.03 33.0653 633.93 35.1072 633.93 38.6051V38.7472C633.93 40.7713 631.871 40.5938 626.899 41.233C621.839 41.8899 616.317 43.0085 616.317 49.2585C616.317 54.5852 620.436 57.6392 625.621 57.6392ZM626.26 53.875C622.922 53.875 620.507 52.3835 620.507 49.4716C620.507 46.2756 623.419 45.2812 626.686 44.8551C628.461 44.642 633.22 44.1449 633.93 43.2926V47.1278C633.93 50.5369 631.231 53.875 626.26 53.875ZM24.9148 124.304H29.1051V115.568C36.4915 115.568 41.4631 109.957 41.4631 101.506C41.4631 92.983 36.4915 87.3722 29.1051 87.3722V78.6364H24.9148V87.3722C17.5284 87.3722 12.5568 92.983 12.5568 101.506C12.5568 109.957 17.5284 115.568 24.9148 115.568V124.304ZM29.1051 111.804V91.1364C34.7159 91.1364 37.2727 96.0369 37.2727 101.506C37.2727 106.974 34.7159 111.804 29.1051 111.804ZM24.9148 111.804C19.304 111.804 16.7472 106.974 16.7472 101.506C16.7472 96.0369 19.304 91.1364 24.9148 91.1364V111.804ZM55.894 115.639C60.6525 115.639 63.1383 113.082 63.9906 111.307H64.2037V115H68.394V97.0312C68.394 88.3665 61.7889 87.3722 58.3088 87.3722C54.1895 87.3722 49.502 88.7926 47.3713 93.7642L51.3485 95.1847C52.2718 93.196 54.4558 91.0653 58.4508 91.0653C62.3038 91.0653 64.2037 93.1072 64.2037 96.6051V96.7472C64.2037 98.7713 62.144 98.5938 57.1724 99.233C52.112 99.8899 46.59 101.009 46.59 107.259C46.59 112.585 50.7093 115.639 55.894 115.639ZM56.5332 111.875C53.1951 111.875 50.7804 110.384 50.7804 107.472C50.7804 104.276 53.6923 103.281 56.9593 102.855C58.7349 102.642 63.4934 102.145 64.2037 101.293V105.128C64.2037 108.537 61.5048 111.875 56.5332 111.875ZM76.0423 115H80.2326V103.494H83.9968L92.9457 115H98.3434L87.1928 100.866L98.2013 87.7273H92.8036L83.0025 99.5881H80.2326V87.7273H76.0423V115ZM105.597 125.156C109.379 125.156 112.06 123.15 113.622 118.977L125.234 87.7983L120.653 87.7273L113.125 109.46H112.841L105.312 87.7273H100.767L110.852 115.142L110.071 117.273C108.58 121.357 106.662 121.747 103.608 120.966L102.543 124.659C102.969 124.872 104.176 125.156 105.597 125.156ZM126.069 115H127.489C133.526 115 135.266 110.312 135.657 101.364L136.083 91.6335H146.097V115H150.288V87.7273H132.106L131.609 99.8011C131.254 108.963 130.33 111.094 127.063 111.094H126.069V115ZM162.166 97.5994V87.7273H157.976V115H169.411C175.803 115 179.283 111.094 179.283 106.193C179.283 101.222 175.803 97.5994 169.411 97.5994H162.166ZM162.166 101.506H169.411C172.731 101.506 175.092 103.53 175.092 106.406C175.092 109.158 172.731 111.094 169.411 111.094H162.166V101.506ZM181.267 91.6335H190.287V115H194.477V91.6335H203.426V87.7273H181.267V91.6335ZM219.557 115.568C225.097 115.568 229.145 112.798 230.423 108.679L226.375 107.543C225.31 110.384 222.842 111.804 219.557 111.804C214.639 111.804 211.247 108.626 211.052 102.784H230.85V101.009C230.85 90.8523 224.813 87.3722 219.131 87.3722C211.744 87.3722 206.844 93.196 206.844 101.577C206.844 109.957 211.673 115.568 219.557 115.568ZM211.052 99.1619C211.336 94.9183 214.337 91.1364 219.131 91.1364C223.676 91.1364 226.588 94.5455 226.588 99.1619H211.052ZM234.685 91.6335H243.705V115H247.895V91.6335H256.844V87.7273H234.685V91.6335ZM269.566 115.639C274.324 115.639 276.81 113.082 277.662 111.307H277.876V115H282.066V97.0312C282.066 88.3665 275.461 87.3722 271.981 87.3722C267.861 87.3722 263.174 88.7926 261.043 93.7642L265.02 95.1847C265.944 93.196 268.128 91.0653 272.123 91.0653C275.976 91.0653 277.876 93.1072 277.876 96.6051V96.7472C277.876 98.7713 275.816 98.5938 270.844 99.233C265.784 99.8899 260.262 101.009 260.262 107.259C260.262 112.585 264.381 115.639 269.566 115.639ZM270.205 111.875C266.867 111.875 264.452 110.384 264.452 107.472C264.452 104.276 267.364 103.281 270.631 102.855C272.407 102.642 277.165 102.145 277.876 101.293V105.128C277.876 108.537 275.177 111.875 270.205 111.875ZM14.4034 173H27.5426C36.1364 173 39.6875 168.81 39.6875 163.341C39.6875 157.588 35.7102 154.463 32.3722 154.25V153.895C35.4972 153.043 38.267 150.983 38.267 146.295C38.267 140.969 34.7159 136.636 27.1165 136.636H14.4034V173ZM18.8068 169.094V156.452H27.7557C32.5142 156.452 35.4972 159.648 35.4972 163.341C35.4972 166.537 33.2955 169.094 27.5426 169.094H18.8068ZM18.8068 152.616V140.543H27.1165C31.946 140.543 34.0767 143.099 34.0767 146.295C34.0767 150.131 30.9517 152.616 26.9744 152.616H18.8068ZM57.7894 173.568C63.3292 173.568 67.3775 170.798 68.6559 166.679L64.6076 165.543C63.5423 168.384 61.0742 169.804 57.7894 169.804C52.8711 169.804 49.4798 166.626 49.2844 160.784H69.082V159.009C69.082 148.852 63.0451 145.372 57.3633 145.372C49.9769 145.372 45.0763 151.196 45.0763 159.577C45.0763 167.957 49.9059 173.568 57.7894 173.568ZM49.2844 157.162C49.5685 152.918 52.5692 149.136 57.3633 149.136C61.9087 149.136 64.8207 152.545 64.8207 157.162H49.2844ZM95.6978 135.5C94.3661 136.619 92.3775 136.619 89.5898 136.601C88.6843 136.601 87.69 136.601 86.6069 136.636C78.2972 136.849 74.1779 143.17 74.1779 155.315V158.227C74.1779 168.312 79.0785 173.568 86.3938 173.568C93.6914 173.568 98.5387 168.277 98.5387 159.719C98.5387 151.125 93.6204 146.58 87.2461 146.58C83.4996 146.58 80.0018 148.142 78.1552 151.551H77.8001C78.3683 144.52 80.9961 140.756 86.6779 140.543C91.7205 140.33 95.3427 140.472 97.8285 138.057L95.6978 135.5ZM86.3938 169.804C81.4222 169.804 78.3683 165.827 78.3683 159.719C78.457 153.753 81.4577 150.344 86.3228 150.344C91.3121 150.344 94.3484 153.753 94.3484 159.719C94.3484 165.862 91.3299 169.804 86.3938 169.804ZM120.574 155.457H104.664V159.364H120.574V155.457ZM127.947 183.227H132.137V168.81H132.492C133.415 170.301 135.191 173.568 140.447 173.568C147.265 173.568 152.023 168.099 152.023 159.435C152.023 150.841 147.265 145.372 140.376 145.372C135.049 145.372 133.415 148.639 132.492 150.06H131.995V145.727H127.947V183.227ZM132.066 159.364C132.066 153.256 134.765 149.136 139.878 149.136C145.205 149.136 147.833 153.611 147.833 159.364C147.833 165.188 145.134 169.804 139.878 169.804C134.836 169.804 132.066 165.543 132.066 159.364ZM166.441 173.639C171.199 173.639 173.685 171.082 174.537 169.307H174.751V173H178.941V155.031C178.941 146.366 172.336 145.372 168.856 145.372C164.736 145.372 160.049 146.793 157.918 151.764L161.895 153.185C162.819 151.196 165.003 149.065 168.998 149.065C172.851 149.065 174.751 151.107 174.751 154.605V154.747C174.751 156.771 172.691 156.594 167.719 157.233C162.659 157.89 157.137 159.009 157.137 165.259C157.137 170.585 161.256 173.639 166.441 173.639ZM167.08 169.875C163.742 169.875 161.327 168.384 161.327 165.472C161.327 162.276 164.239 161.281 167.506 160.855C169.282 160.642 174.04 160.145 174.751 159.293V163.128C174.751 166.537 172.052 169.875 167.08 169.875ZM184.885 166.04C185.027 170.514 189.306 173.568 195.112 173.568C201.078 173.568 205.41 170.372 205.41 165.401C205.41 161.991 203.368 159.222 200.297 159.009V158.724C202.889 157.925 204.842 156.043 204.842 152.972C204.842 148.657 201.149 145.372 195.396 145.372C189.714 145.372 185.666 148.497 185.524 152.901H189.927C190.051 150.646 192.413 149.065 195.609 149.065C198.787 149.065 200.581 150.681 200.581 153.114C200.581 155.386 199.018 157.091 195.68 157.091H190.993V160.855H195.68C199.018 160.855 201.149 162.684 201.149 165.401C201.149 168.508 198.397 169.804 195.041 169.804C191.756 169.804 189.554 168.508 189.359 166.04H184.885ZM211.296 183.227H215.487V168.81H215.842C216.765 170.301 218.54 173.568 223.796 173.568C230.614 173.568 235.373 168.099 235.373 159.435C235.373 150.841 230.614 145.372 223.725 145.372C218.398 145.372 216.765 148.639 215.842 150.06H215.344V145.727H211.296V183.227ZM215.415 159.364C215.415 153.256 218.114 149.136 223.228 149.136C228.555 149.136 231.183 153.611 231.183 159.364C231.183 165.188 228.484 169.804 223.228 169.804C218.185 169.804 215.415 165.543 215.415 159.364ZM249.79 173.639C254.549 173.639 257.035 171.082 257.887 169.307H258.1V173H262.29V155.031C262.29 146.366 255.685 145.372 252.205 145.372C248.086 145.372 243.398 146.793 241.268 151.764L245.245 153.185C246.168 151.196 248.352 149.065 252.347 149.065C256.2 149.065 258.1 151.107 258.1 154.605V154.747C258.1 156.771 256.04 156.594 251.069 157.233C246.009 157.89 240.487 159.009 240.487 165.259C240.487 170.585 244.606 173.639 249.79 173.639ZM250.43 169.875C247.092 169.875 244.677 168.384 244.677 165.472C244.677 162.276 247.589 161.281 250.856 160.855C252.631 160.642 257.39 160.145 258.1 159.293V163.128C258.1 166.537 255.401 169.875 250.43 169.875ZM290.18 135.5C288.849 136.619 286.86 136.619 284.072 136.601C283.167 136.601 282.172 136.601 281.089 136.636C272.78 136.849 268.66 143.17 268.66 155.315V158.227C268.66 168.312 273.561 173.568 280.876 173.568C288.174 173.568 293.021 168.277 293.021 159.719C293.021 151.125 288.103 146.58 281.729 146.58C277.982 146.58 274.484 148.142 272.638 151.551H272.282C272.851 144.52 275.479 140.756 281.16 140.543C286.203 140.33 289.825 140.472 292.311 138.057L290.18 135.5ZM280.876 169.804C275.905 169.804 272.851 165.827 272.851 159.719C272.939 153.753 275.94 150.344 280.805 150.344C285.795 150.344 288.831 153.753 288.831 159.719C288.831 165.862 285.812 169.804 280.876 169.804ZM310.51 173.568C317.897 173.568 322.868 167.957 322.868 159.506C322.868 150.983 317.897 145.372 310.51 145.372C303.124 145.372 298.153 150.983 298.153 159.506C298.153 167.957 303.124 173.568 310.51 173.568ZM310.51 169.804C304.9 169.804 302.343 164.974 302.343 159.506C302.343 154.037 304.9 149.136 310.51 149.136C316.121 149.136 318.678 154.037 318.678 159.506C318.678 164.974 316.121 169.804 310.51 169.804ZM325.7 149.634H334.72V173H338.911V149.634H347.86V145.727H325.7V149.634ZM353.972 173H358.162V161.494H361.926L370.875 173H376.273L365.123 158.866L376.131 145.727H370.733L360.932 157.588H358.162V145.727H353.972V173ZM385.018 166.821V145.727H380.827V173H385.728L398.796 151.906V173H402.987V145.727H398.157L385.018 166.821ZM413.715 173.284C415.473 173.284 416.911 171.846 416.911 170.088C416.911 168.33 415.473 166.892 413.715 166.892C411.958 166.892 410.519 168.33 410.519 170.088C410.519 171.846 411.958 173.284 413.715 173.284Z" fill="white"/>
</svg>
